# xmcd
#
# Track frame offsets: 
#        150
#        9551
#        23417
#        33420
#        44595
#        53883
#        68970
#        81785
#        92931
#        99473
#        114309
#        125664
#        136129
#        144915
#        154307
#        163808
#        174842
#        180522
#        188347
#        199443
#
# Disc length: 2775 seconds
#
# Revision: 0
# Processed by: cddbd v1.5.2PL0 Copyright (c) Steve Scherf et al.
# Submitted via: ExactAudioCopy v0.95b4
#
DISCID=080ad514
DTITLE=Georges Brassens - J'ai rendez voous avec vous
DYEAR=1900
DGENRE=
TTITLE0=j'ai rendez bous avec ous
TTITLE1=les amoureux des bancs publics
TTITLE2=la maubaise reputation
TTITLE3=le parapluie
TTITLE4=la chasse auc papillons
TTITLE5=brave margot
TTITLE6=corne d'auroch
TTITLE7=il n'y a pas d'amour heureux
TTITLE8=la cane de jeanne
TTITLE9=le gorille
TTITLE10=le mauvais sujet repenti
TTITLE11=le petit cheval
TTITLE12=hecatombe
TTITLE13=ballade des dames du temps jadis
TTITLE14=le fossoyeur
TTITLE15=le nombril des femmes d'agent
TTITLE16=le ent
TTITLE17=comme hier
TTITLE18=la marine
TTITLE19=il suffit de passer le pont
EXTD=
EXTT0=
EXTT1=
EXTT2=
EXTT3=
EXTT4=
EXTT5=
EXTT6=
EXTT7=
EXTT8=
EXTT9=
EXTT10=
EXTT11=
EXTT12=
EXTT13=
EXTT14=
EXTT15=
EXTT16=
EXTT17=
EXTT18=
EXTT19=
PLAYORDER=
